<?xml version="1.0" encoding="utf-8"?>
<!-- Generator: Adobe Illustrator 21.1.0, SVG Export Plug-In . SVG Version: 6.00 Build 0)  -->
<svg version="1.1" id="Layer_1" xmlns="http://www.w3.org/2000/svg" xmlns:xlink="http://www.w3.org/1999/xlink" x="0px" y="0px"
	 viewBox="0 0 293.2 65.3" style="enable-background:new 0 0 293.2 65.3;" xml:space="preserve">
<style type="text/css">
	.st0{fill:#16A55A;}
</style>
<g id="Layer_1_1_">
</g>
<g id="Isolation_Mode">
	<g>
		<path class="st0" d="M86.3,20.1c-1.2-1.3-2.8-2.3-4.5-3C80,16.4,78,16,75.8,16c-3.1,0-6,0.5-8.7,1.4c-2.7,1-5.2,2.4-7.4,4.4l2,3.4
			c0.3,0.5,0.8,1,1.3,1.4s1.2,0.6,1.9,0.6c0.9,0,1.6-0.1,2.2-0.4s1.2-0.6,1.9-1c0.7-0.4,1.4-0.7,2.2-1c0.8-0.3,1.9-0.4,3.2-0.4
			c1.6,0,2.9,0.5,3.8,1.4c0.9,1,1.3,2.5,1.3,4.7v1.6c-4.2,0.1-7.7,0.5-10.5,1.3s-5,1.7-6.6,2.8s-2.8,2.4-3.4,3.7c-0.7,1.4-1,2.7-1,4
			c0,1.7,0.3,3.1,0.8,4.4c0.5,1.3,1.3,2.3,2.2,3.2c1,0.9,2.1,1.5,3.5,1.9s2.9,0.7,4.6,0.7c1.3,0,2.4-0.1,3.4-0.3s2-0.5,2.9-0.9
			s1.8-0.9,2.6-1.5c0.9-0.6,1.7-1.3,2.7-2.1l0.8,2c0.4,0.9,0.8,1.5,1.3,1.8s1.3,0.4,2.4,0.4h5v-23c0-2.1-0.3-4.1-1-5.8
			C88.5,22.9,87.5,21.4,86.3,20.1z M79.4,43.7c-1.1,1.1-2.2,1.9-3.2,2.4c-1.1,0.5-2.3,0.7-3.7,0.7c-1.3,0-2.3-0.3-3-0.8
			s-1-1.4-1-2.6c0-0.6,0.2-1.2,0.5-1.8c0.3-0.5,0.9-1,1.7-1.5c0.8-0.4,2-0.8,3.4-1.1s3.2-0.5,5.4-0.6v5.3H79.4z"/>
		<path class="st0" d="M126.1,20.1c-1.1-1.2-2.4-2.2-3.9-2.9c-1.6-0.7-3.3-1-5.3-1c-1.2,0-2.3,0.1-3.3,0.3c-1,0.2-1.9,0.5-2.8,0.9
			s-1.7,0.9-2.4,1.4c-0.8,0.6-1.5,1.2-2.2,1.8l-0.6-2.1c-0.4-1.2-1.3-1.8-2.7-1.8h-6.8v36.8h11V27.3c1-0.9,2-1.6,3.1-2.1
			s2.2-0.8,3.4-0.8c1.6,0,2.8,0.5,3.7,1.5c0.8,1,1.2,2.4,1.2,4.2v23.4h11V30.1c0-2-0.3-3.9-0.8-5.6C128,22.8,127.2,21.3,126.1,20.1z
			"/>
		<rect x="40.8" y="0.4" class="st0" width="11" height="53.2"/>
		<path class="st0" d="M31.3,21c-1.2-1.6-2.6-2.8-4.2-3.7c-1.6-0.9-3.4-1.3-5.3-1.3c-2.5,0-4.7,0.5-6.5,1.5s-3.5,2.2-4.9,3.8
			l-0.9-2.7c-0.4-1.2-1.3-1.8-2.7-1.8H0v48.5h11V51.1c1.1,0.9,2.2,1.7,3.5,2.2s2.9,0.8,4.8,0.8c2.3,0,4.5-0.5,6.4-1.5s3.6-2.3,5-4
			c1.4-1.7,2.5-3.8,3.2-6.1c0.8-2.3,1.2-4.9,1.2-7.7c0-3-0.3-5.6-1-7.9S32.5,22.6,31.3,21z M23.2,40c-0.4,1.4-0.8,2.6-1.5,3.5
			c-0.6,0.9-1.4,1.5-2.2,1.9c-0.9,0.4-1.8,0.6-2.8,0.6c-1.1,0-2.1-0.2-3.1-0.6c-1-0.4-1.9-1-2.7-1.9V27.9c0.9-1.1,1.9-2,3-2.6
			c1-0.6,2.4-0.9,4-0.9c0.9,0,1.7,0.2,2.4,0.5c0.7,0.4,1.3,0.9,1.8,1.8c0.5,0.8,0.9,1.9,1.2,3.2c0.3,1.3,0.4,3,0.4,4.9
			C23.7,36.9,23.6,38.6,23.2,40z"/>
		<rect x="282.2" class="st0" width="11" height="53.2"/>
		<rect x="265.3" class="st0" width="11" height="53.2"/>
		<path class="st0" d="M160.3,34.6c-0.8-0.7-1.7-1.4-2.7-1.9s-2.1-1-3.1-1.3c-1.1-0.4-2.1-0.7-3.1-1s-1.9-0.6-2.7-1
			c-0.8-0.3-1.4-0.7-1.9-1.2c-0.5-0.4-0.7-1-0.7-1.7c0-0.9,0.4-1.7,1.1-2.2c0.7-0.5,1.8-0.8,3.2-0.8c1,0,1.8,0.1,2.6,0.3
			c0.8,0.2,1.4,0.5,2,0.7c0.6,0.3,1.2,0.5,1.7,0.7s1,0.3,1.6,0.3c0.5,0,0.9-0.1,1.2-0.3c0.3-0.2,0.6-0.5,0.9-1l2.5-3.9
			c-0.7-0.7-1.5-1.3-2.4-1.9s-1.9-1.1-3-1.5s-2.3-0.8-3.5-1c-0.8-0.1-1.5-0.2-2.3-0.3v-2.9h-6.5v3.4c-0.5,0.1-1,0.2-1.5,0.3
			c-1.8,0.6-3.3,1.5-4.5,2.5c-1.2,1.1-2.1,2.3-2.7,3.7c-0.6,1.4-0.9,2.9-0.9,4.5c0,1.7,0.2,3.1,0.7,4.3c0.5,1.2,1.1,2.2,2,3
			c0.8,0.8,1.7,1.5,2.8,2c1,0.5,2.1,1,3.1,1.4c1.1,0.4,2.1,0.7,3.1,1s1.9,0.6,2.8,1c0.8,0.3,1.5,0.8,2,1.2c0.5,0.5,0.7,1.1,0.7,1.8
			c0,0.4-0.1,0.8-0.2,1.2c-0.2,0.4-0.4,0.7-0.8,1c-0.4,0.3-0.8,0.6-1.4,0.7c-0.6,0.2-1.3,0.3-2.2,0.3c-1.2,0-2.2-0.1-3-0.4
			c-0.8-0.3-1.5-0.6-2.1-0.9c-0.6-0.3-1.1-0.6-1.6-0.9c-0.5-0.3-1.1-0.4-1.7-0.4c-0.7,0-1.2,0.1-1.7,0.4c-0.4,0.3-0.8,0.6-1.1,1.1
			l-2.6,4c0.7,0.6,1.6,1.2,2.6,1.8s2.1,1,3.2,1.4c1.2,0.4,2.4,0.7,3.6,1c0.5,0.1,0.9,0.1,1.4,0.2v3h6.5v-3.2
			c0.9-0.1,1.8-0.3,2.6-0.6c1.9-0.6,3.6-1.5,4.9-2.6c1.3-1.1,2.3-2.4,3-4c0.7-1.5,1-3.2,1-5c0-1.5-0.2-2.8-0.7-3.8
			C161.7,36.3,161.1,35.4,160.3,34.6z"/>
		<path class="st0" d="M213.6,16.9c-0.5,0.4-0.9,0.8-1.1,1.4l-3.9,16.4c-0.3,1.3-0.6,2.5-0.9,3.7c-0.3,1.2-0.5,2.4-0.7,3.6
			c-0.3-1.2-0.6-2.4-0.9-3.6s-0.7-2.4-1-3.7l-4.4-16.5c-0.2-0.5-0.6-1-1.1-1.4s-1.2-0.6-2-0.6h-4.9c-0.7,0-1.3,0.2-1.8,0.6
			s-0.9,0.8-1.1,1.4l-4.6,16.5c-0.4,1.3-0.8,2.5-1.1,3.6c-0.3,1.2-0.7,2.3-1,3.5c-0.2-1.2-0.4-2.4-0.6-3.5c-0.2-1.2-0.5-2.4-0.8-3.6
			L178,18.2c-0.2-0.5-0.6-1-1.1-1.4s-1.2-0.6-2-0.6h-8.8L177.5,53h8.5c1.2,0,2-0.6,2.3-1.8l5.3-18.3c0.3-0.8,0.5-1.7,0.7-2.5
			s0.4-1.7,0.6-2.5c0.2,0.8,0.3,1.6,0.6,2.5c0.2,0.8,0.4,1.6,0.7,2.5l5.3,18.4c0.2,0.7,0.4,1.1,0.8,1.4c0.3,0.3,0.7,0.4,1.2,0.4h8.9
			l11.4-36.8h-8.4C214.8,16.3,214.1,16.5,213.6,16.9z"/>
		<path class="st0" d="M255.2,20.2c-1.5-1.4-3.2-2.5-5.2-3.3s-4.3-1.1-6.7-1.1c-2.8,0-5.3,0.5-7.6,1.5c-2.2,1-4.1,2.3-5.7,3.9
			s-2.8,3.6-3.6,5.8s-1.3,4.5-1.3,7c0,3.3,0.5,6.1,1.5,8.6s2.3,4.5,4,6.2s3.7,2.9,5.9,3.7c2.3,0.8,4.7,1.3,7.3,1.3
			c1.3,0,2.6-0.1,4-0.3s2.8-0.5,4.2-1s2.7-1.1,4-1.9c1.3-0.8,2.5-1.9,3.7-3.2l-3.2-3.9c-0.5-0.6-1.1-1-2-1c-0.7,0-1.3,0.2-1.9,0.5
			s-1.3,0.7-2,1c-0.7,0.4-1.5,0.7-2.5,1c-0.9,0.3-2,0.5-3.3,0.5c-2.4,0-4.3-0.7-5.9-2.1c-1.5-1.4-2.5-3.6-2.8-6.7h21.2
			c0.5,0,0.9-0.1,1.2-0.2c0.3-0.1,0.6-0.3,0.8-0.6c0.2-0.3,0.3-0.7,0.4-1.2s0.1-1.2,0.1-2c0-2.7-0.4-5-1.2-7.1
			C257.8,23.4,256.7,21.6,255.2,20.2z M236.3,30.3c0.4-2.2,1.2-4,2.3-5.2c1.2-1.2,2.8-1.8,4.9-1.8c1.2,0,2.2,0.2,3,0.6
			s1.5,0.9,2,1.6c0.5,0.6,0.9,1.4,1.1,2.2c0.2,0.8,0.3,1.7,0.3,2.6H236.3z"/>
	</g>
</g>
</svg>
