<?xml version="1.0" encoding="utf-8"?>
<!-- Generator: Adobe Illustrator 16.0.0, SVG Export Plug-In . SVG Version: 6.00 Build 0)  -->
<!DOCTYPE svg PUBLIC "-//W3C//DTD SVG 1.1//EN" "http://www.w3.org/Graphics/SVG/1.1/DTD/svg11.dtd">
<svg version="1.1" id="Layer_1" xmlns="http://www.w3.org/2000/svg" xmlns:xlink="http://www.w3.org/1999/xlink" x="0px" y="0px"
	 width="1253.181px" height="136.606px" viewBox="0 0 1253.181 136.606" enable-background="new 0 0 1253.181 136.606"
	 xml:space="preserve">
<g>
	<g>
		<path fill="#16A55A" d="M603.642,111.998h23.535V0h-23.535V111.998z M564.17,111.998h23.529V0H564.17V111.998z M547.078,77.349
			c1.068,0,1.939-0.128,2.621-0.365c0.682-0.246,1.223-0.707,1.635-1.349c0.406-0.651,0.682-1.526,0.831-2.628
			c0.159-1.089,0.226-2.508,0.226-4.261c0-5.581-0.868-10.593-2.613-15c-1.74-4.414-4.176-8.146-7.285-11.174
			c-3.116-3.051-6.834-5.363-11.162-6.959c-4.325-1.601-9.094-2.396-14.313-2.396c-6.021,0-11.417,1.017-16.211,3.063
			c-4.784,2.046-8.851,4.813-12.221,8.308c-3.365,3.493-5.952,7.557-7.745,12.192c-1.793,4.631-2.693,9.558-2.693,14.738
			c0,6.874,1.053,12.913,3.153,18.102c2.101,5.193,4.951,9.519,8.579,13.015c3.619,3.492,7.844,6.124,12.673,7.905
			c4.843,1.765,10.012,2.66,15.532,2.66c2.684,0,5.5-0.197,8.462-0.573c2.96-0.378,5.921-1.044,8.885-2.017
			c2.956-0.975,5.842-2.328,8.655-4.053c2.81-1.708,5.425-3.939,7.857-6.677l-6.836-8.308c-0.968-1.355-2.377-2.022-4.25-2.022
			c-1.414,0-2.772,0.322-4.059,0.964c-1.294,0.652-2.707,1.375-4.259,2.186c-1.542,0.791-3.298,1.517-5.269,2.154
			c-1.982,0.652-4.334,0.974-7.062,0.974c-5.114,0-9.286-1.458-12.523-4.383c-3.241-2.907-5.249-7.611-6.004-14.097H547.078z
			 M501.977,63.892c0.814-4.734,2.486-8.381,5.021-10.883c2.531-2.537,6.025-3.786,10.479-3.786c2.526,0,4.676,0.433,6.447,1.266
			c1.772,0.853,3.203,1.962,4.297,3.341c1.077,1.365,1.861,2.936,2.352,4.677c0.476,1.739,0.715,3.533,0.715,5.386H501.977z
			 M457.494,34.412c-1.523,0-2.83,0.391-3.949,1.156c-1.107,0.781-1.868,1.739-2.27,2.881l-8.35,34.794
			c-0.719,2.682-1.352,5.287-1.91,7.778c-0.553,2.491-1.027,4.981-1.438,7.473c-0.608-2.53-1.28-5.065-2.013-7.558
			c-0.736-2.491-1.482-5.049-2.236-7.693l-9.415-34.862c-0.406-1.156-1.176-2.101-2.318-2.882c-1.136-0.779-2.54-1.167-4.211-1.167
			H408.9c-1.516,0-2.834,0.388-3.943,1.167c-1.111,0.781-1.875,1.726-2.272,2.882l-9.875,34.862
			c-0.853,2.645-1.654,5.202-2.387,7.67c-0.737,2.461-1.434,4.952-2.09,7.443c-0.41-2.491-0.86-4.982-1.369-7.443
			c-0.51-2.468-1.093-5.025-1.745-7.67l-7.893-34.794c-0.409-1.142-1.174-2.1-2.315-2.881c-1.145-0.766-2.547-1.156-4.217-1.156
			h-18.829l24.443,77.586h18.227c2.58,0,4.251-1.305,5.007-3.895l11.391-38.533c0.559-1.74,1.052-3.479,1.479-5.232
			c0.434-1.74,0.824-3.496,1.18-5.235c0.353,1.739,0.746,3.465,1.177,5.166c0.424,1.695,0.92,3.408,1.479,5.149l11.232,38.686
			c0.407,1.39,0.965,2.393,1.672,2.989c0.711,0.6,1.575,0.905,2.584,0.905h19.135l24.444-77.586H457.494z M347.256,43.238
			c-1.472-1.446-3.162-2.772-5.083-3.993c-1.922-1.239-4.048-2.283-6.374-3.188c-2.328-0.889-4.828-1.601-7.488-2.091
			c-2.648-0.497-5.396-0.75-8.227-0.75c-5.221,0-9.772,0.657-13.672,1.977c-3.896,1.324-7.137,3.104-9.722,5.355
			c-2.579,2.245-4.512,4.845-5.807,7.811c-1.29,2.963-1.938,6.109-1.938,9.396c0,3.546,0.54,6.551,1.6,9.044
			c1.06,2.505,2.459,4.606,4.174,6.328c1.725,1.715,3.688,3.135,5.887,4.263c2.205,1.125,4.438,2.084,6.722,2.88
			c2.272,0.796,4.516,1.517,6.715,2.13c2.205,0.627,4.162,1.294,5.887,2.031c1.714,0.712,3.114,1.571,4.172,2.574
			c1.069,1.004,1.597,2.27,1.597,3.811c0,0.85-0.184,1.671-0.527,2.48c-0.357,0.791-0.916,1.517-1.676,2.155
			c-0.754,0.658-1.771,1.171-3.036,1.532c-1.261,0.376-2.809,0.569-4.635,0.569c-2.575,0-4.712-0.308-6.411-0.905
			c-1.696-0.597-3.179-1.236-4.439-1.947c-1.265-0.695-2.439-1.333-3.531-1.931c-1.094-0.6-2.318-0.905-3.683-0.905
			c-1.468,0-2.663,0.291-3.612,0.858c-0.936,0.59-1.696,1.364-2.308,2.369l-5.472,8.516c1.518,1.347,3.341,2.604,5.472,3.784
			c2.129,1.171,4.441,2.176,6.942,3.021c2.507,0.85,5.1,1.53,7.779,2.031c2.684,0.488,5.367,0.756,8.052,0.756
			c5.365,0,10.11-0.657,14.235-1.952c4.119-1.294,7.593-3.113,10.394-5.467c2.817-2.339,4.929-5.136,6.347-8.382
			c1.414-3.241,2.126-6.775,2.126-10.615c0-3.148-0.522-5.848-1.552-8.084c-1.042-2.245-2.423-4.147-4.142-5.727
			c-1.718-1.567-3.672-2.89-5.846-3.962c-2.175-1.072-4.405-2.008-6.688-2.812c-2.269-0.792-4.502-1.518-6.671-2.169
			c-2.18-0.644-4.127-1.325-5.851-2.046c-1.721-0.728-3.1-1.562-4.145-2.507c-1.025-0.959-1.551-2.154-1.551-3.594
			c0-2.001,0.8-3.558,2.397-4.674c1.591-1.128,3.882-1.682,6.865-1.682c2.074,0,3.921,0.231,5.544,0.708
			c1.615,0.474,3.07,0.99,4.364,1.533c1.294,0.557,2.491,1.055,3.603,1.53c1.122,0.47,2.229,0.707,3.342,0.707
			c1.068,0,1.941-0.19,2.626-0.599c0.679-0.389,1.321-1.073,1.935-2.016L347.256,43.238z M225.711,38.298
			c-0.912-2.592-2.842-3.886-5.777-3.886h-14.578v77.586H228.9V56.627c2.125-1.839,4.313-3.3,6.566-4.369
			c2.25-1.071,4.664-1.614,7.251-1.614c3.445,0,6.043,1.072,7.814,3.186c1.772,2.116,2.657,5.081,2.657,8.861v49.308h23.539V62.69
			c0-4.239-0.581-8.164-1.744-11.786c-1.166-3.618-2.891-6.736-5.172-9.351c-2.27-2.615-5.072-4.661-8.384-6.138
			c-3.312-1.459-7.126-2.199-11.421-2.199c-2.541,0-4.878,0.237-7.028,0.711c-2.149,0.475-4.15,1.111-5.995,1.933
			c-1.842,0.835-3.577,1.839-5.204,3.034c-1.615,1.196-3.183,2.505-4.699,3.899L225.711,38.298z M129.291,52.437
			c0.719,1.103,1.626,2.045,2.733,2.851c1.11,0.796,2.48,1.202,4.097,1.202c1.823,0,3.395-0.307,4.71-0.904
			c1.31-0.604,2.669-1.271,4.067-2.021c1.385-0.752,2.969-1.419,4.746-2.02c1.763-0.596,4.041-0.901,6.828-0.901
			c3.488,0,6.188,1.011,8.091,3.033c1.889,2.016,2.843,5.303,2.843,9.84V66.8c-9.012,0.204-16.479,1.1-22.398,2.696
			c-5.921,1.602-10.63,3.578-14.121,5.946c-3.488,2.367-5.955,4.997-7.358,7.863c-1.424,2.865-2.129,5.692-2.129,8.49
			c0,3.49,0.547,6.566,1.671,9.237c1.109,2.673,2.692,4.903,4.742,6.696c2.047,1.792,4.538,3.157,7.473,4.078
			c2.936,0.918,6.204,1.393,9.802,1.393c2.677,0,5.124-0.228,7.322-0.657c2.202-0.415,4.276-1.058,6.224-1.933
			c1.958-0.88,3.839-1.938,5.659-3.188c1.817-1.239,3.72-2.688,5.688-4.33l1.681,4.26c0.752,1.893,1.709,3.144,2.836,3.74
			c1.142,0.6,2.827,0.905,5.052,0.905h10.789V63.517c0-4.442-0.718-8.535-2.125-12.277c-1.419-3.746-3.46-6.972-6.113-9.686
			c-2.659-2.714-5.902-4.83-9.723-6.36c-3.819-1.518-8.11-2.284-12.868-2.284c-6.628,0-12.845,1.019-18.643,3.034
			c-5.788,2.022-11.07,5.112-15.819,9.243L129.291,52.437z M167.406,91.197c-2.328,2.339-4.632,4.033-6.911,5.091
			c-2.271,1.041-4.931,1.562-7.974,1.562c-2.828,0-4.979-0.526-6.446-1.602c-1.475-1.072-2.209-2.935-2.209-5.579
			c0-1.354,0.341-2.59,1.032-3.746c0.682-1.142,1.901-2.155,3.677-3.06c1.77-0.896,4.177-1.646,7.211-2.244
			c3.038-0.598,6.917-1.003,11.62-1.195V91.197z M87.309,111.998h23.532V0H87.309V111.998z M20.342,38.298
			c-0.904-2.592-2.826-3.885-5.763-3.885H0v102.193h23.535v-29.782c2.281,1.947,4.808,3.494,7.601,4.646
			c2.773,1.143,6.213,1.73,10.318,1.73c5.008,0,9.577-1.033,13.698-3.079c4.129-2.047,7.671-4.885,10.633-8.53
			c2.959-3.647,5.263-7.932,6.903-12.875c1.65-4.926,2.472-10.323,2.472-16.155c0-6.223-0.728-11.802-2.16-16.714
			c-1.442-4.913-3.434-9.061-5.969-12.454c-2.528-3.397-5.532-5.985-9.029-7.779c-3.495-1.799-7.295-2.704-11.388-2.704
			c-5.416,0-10.081,1.048-14.013,3.105c-3.916,2.074-7.429,4.733-10.505,7.977L20.342,38.298z M23.535,57.976
			c2.026-2.391,4.146-4.216,6.373-5.455c2.236-1.251,5.058-1.877,8.502-1.877c1.873,0,3.574,0.373,5.09,1.127
			c1.518,0.75,2.821,1.976,3.91,3.7c1.091,1.725,1.941,3.979,2.545,6.767c0.607,2.797,0.913,6.245,0.913,10.323
			c0,4.285-0.374,7.933-1.14,10.923c-0.763,2.995-1.811,5.431-3.148,7.295c-1.341,1.861-2.921,3.228-4.744,4.076
			c-1.83,0.851-3.826,1.279-6.005,1.279c-2.275,0-4.453-0.398-6.529-1.195c-2.081-0.805-3.994-2.145-5.767-4.038V57.976z"/>
	</g>
	<polygon fill="#16A55A" points="309.518,27.247 309.518,27.247 309.518,47.691 323.314,47.691 323.314,27.247 	"/>
	<polygon fill="#16A55A" points="323.314,119.11 323.314,119.11 323.314,98.67 309.518,98.67 309.518,119.11 	"/>
</g>
<g>
	<path fill="#8B8D8E" d="M693.969,68.966v43.035h-7.701V5.169h27.558c12.533,0,21.982,2.744,28.35,8.229
		c6.367,5.487,9.551,13.314,9.551,23.48c0,4.681-0.868,8.984-2.604,12.911c-1.736,3.926-4.241,7.312-7.512,10.155
		c-3.272,2.844-7.248,5.059-11.93,6.644c-4.681,1.585-9.966,2.378-15.854,2.378H693.969z M693.969,62.775h19.856
		c4.73,0,8.958-0.653,12.684-1.963c3.725-1.308,6.883-3.12,9.476-5.436c2.592-2.314,4.579-5.045,5.964-8.192
		c1.384-3.145,2.077-6.58,2.077-10.306c0-8.204-2.529-14.521-7.588-18.951c-5.059-4.428-12.597-6.644-22.612-6.644h-19.856V62.775z"
		/>
	<path fill="#8B8D8E" d="M794.08,35.671c5.385,0,10.204,0.919,14.458,2.756c4.253,1.838,7.839,4.443,10.759,7.814
		c2.919,3.373,5.146,7.437,6.682,12.193c1.535,4.757,2.303,10.08,2.303,15.968c0,5.889-0.768,11.2-2.303,15.931
		c-1.536,4.731-3.763,8.784-6.682,12.155c-2.92,3.373-6.506,5.965-10.759,7.777c-4.254,1.812-9.073,2.718-14.458,2.718
		c-5.387,0-10.206-0.906-14.458-2.718c-4.255-1.812-7.853-4.404-10.797-7.777c-2.944-3.372-5.185-7.424-6.72-12.155
		c-1.536-4.73-2.303-10.042-2.303-15.931c0-5.889,0.767-11.211,2.303-15.968c1.535-4.756,3.775-8.82,6.72-12.193
		c2.944-3.371,6.542-5.976,10.797-7.814C783.874,36.59,788.693,35.671,794.08,35.671z M794.08,107.32
		c4.479,0,8.393-0.767,11.74-2.303c3.347-1.535,6.14-3.737,8.38-6.606c2.239-2.869,3.913-6.329,5.021-10.381
		c1.106-4.051,1.661-8.594,1.661-13.628c0-4.983-0.555-9.513-1.661-13.59c-1.108-4.077-2.782-7.562-5.021-10.457
		c-2.24-2.894-5.033-5.121-8.38-6.682c-3.348-1.56-7.261-2.34-11.74-2.34c-4.48,0-8.394,0.781-11.74,2.34
		c-3.349,1.561-6.142,3.788-8.381,6.682c-2.24,2.895-3.926,6.379-5.059,10.457c-1.132,4.077-1.698,8.607-1.698,13.59
		c0,5.034,0.566,9.577,1.698,13.628c1.133,4.052,2.818,7.512,5.059,10.381c2.239,2.869,5.032,5.071,8.381,6.606
		C785.687,106.554,789.6,107.32,794.08,107.32z"/>
	<path fill="#8B8D8E" d="M842.625,112.001V36.879h3.774c0.855,0,1.473,0.177,1.85,0.529c0.378,0.353,0.591,0.957,0.642,1.812
		l0.604,15.855c2.416-6.09,5.637-10.859,9.664-14.308c4.026-3.447,8.984-5.171,14.873-5.171c2.266,0,4.354,0.239,6.267,0.717
		c1.912,0.479,3.725,1.17,5.437,2.077l-0.981,4.983c-0.151,0.806-0.655,1.208-1.511,1.208c-0.302,0-0.729-0.101-1.283-0.302
		c-0.555-0.2-1.246-0.427-2.076-0.679c-0.83-0.251-1.85-0.478-3.058-0.68c-1.208-0.201-2.593-0.302-4.152-0.302
		c-5.688,0-10.356,1.762-14.006,5.285c-3.649,3.524-6.605,8.607-8.871,15.251v48.849H842.625z"/>
	<path fill="#8B8D8E" d="M918.5,113.209c-5.084,0-9.035-1.409-11.854-4.228c-2.819-2.818-4.228-7.172-4.228-13.062V44.58h-10.797
		c-0.555,0-1.008-0.151-1.359-0.453c-0.353-0.302-0.528-0.729-0.528-1.284V40.05l12.835-0.906l1.793-26.878
		c0.05-0.453,0.236-0.855,0.56-1.208c0.323-0.352,0.76-0.529,1.309-0.529h3.36v28.69h23.632v5.361h-23.632v50.962
		c0,2.064,0.265,3.839,0.793,5.323c0.528,1.485,1.258,2.706,2.189,3.662c0.931,0.957,2.025,1.661,3.284,2.114
		c1.258,0.453,2.617,0.679,4.077,0.679c1.812,0,3.371-0.264,4.681-0.792c1.309-0.529,2.441-1.106,3.397-1.737
		c0.956-0.628,1.737-1.208,2.341-1.736c0.604-0.528,1.082-0.792,1.435-0.792c0.402,0,0.805,0.252,1.208,0.755l1.963,3.171
		c-1.913,2.114-4.341,3.812-7.285,5.096C924.729,112.568,921.671,113.209,918.5,113.209z"/>
	<path fill="#8B8D8E" d="M950.133,112.001V44.731l-10.57-0.68c-1.46-0.1-2.189-0.729-2.189-1.887v-2.945h12.76v-9.513
		c0-4.278,0.554-8.041,1.661-11.287c1.106-3.247,2.667-5.952,4.681-8.117c2.013-2.163,4.441-3.787,7.286-4.87
		c2.843-1.082,5.977-1.623,9.399-1.623c1.56,0,3.134,0.139,4.719,0.415c1.586,0.277,2.982,0.668,4.19,1.17l-0.227,3.473
		c-0.051,0.705-0.528,1.057-1.435,1.057c-0.604,0-1.423-0.075-2.453-0.227c-1.032-0.151-2.303-0.226-3.813-0.226
		c-2.467,0-4.744,0.366-6.832,1.095c-2.09,0.73-3.889,1.9-5.398,3.511c-1.51,1.611-2.681,3.712-3.511,6.304
		c-0.831,2.593-1.246,5.776-1.246,9.551v9.286h24.387v5.361h-24.235v67.421H950.133z"/>
	<path fill="#8B8D8E" d="M1020.045,35.671c5.385,0,10.204,0.919,14.458,2.756c4.253,1.838,7.839,4.443,10.759,7.814
		c2.919,3.373,5.146,7.437,6.682,12.193c1.535,4.757,2.303,10.08,2.303,15.968c0,5.889-0.768,11.2-2.303,15.931
		c-1.536,4.731-3.763,8.784-6.682,12.155c-2.92,3.373-6.506,5.965-10.759,7.777c-4.254,1.812-9.073,2.718-14.458,2.718
		c-5.387,0-10.206-0.906-14.458-2.718c-4.255-1.812-7.853-4.404-10.797-7.777c-2.944-3.372-5.185-7.424-6.72-12.155
		c-1.536-4.73-2.303-10.042-2.303-15.931c0-5.889,0.767-11.211,2.303-15.968c1.535-4.756,3.775-8.82,6.72-12.193
		c2.944-3.371,6.542-5.976,10.797-7.814C1009.839,36.59,1014.658,35.671,1020.045,35.671z M1020.045,107.32
		c4.479,0,8.393-0.767,11.74-2.303c3.347-1.535,6.14-3.737,8.38-6.606c2.239-2.869,3.913-6.329,5.021-10.381
		c1.106-4.051,1.661-8.594,1.661-13.628c0-4.983-0.555-9.513-1.661-13.59c-1.108-4.077-2.782-7.562-5.021-10.457
		c-2.24-2.894-5.033-5.121-8.38-6.682c-3.348-1.56-7.261-2.34-11.74-2.34c-4.48,0-8.394,0.781-11.74,2.34
		c-3.349,1.561-6.142,3.788-8.381,6.682c-2.24,2.895-3.926,6.379-5.059,10.457c-1.132,4.077-1.698,8.607-1.698,13.59
		c0,5.034,0.566,9.577,1.698,13.628c1.133,4.052,2.818,7.512,5.059,10.381c2.239,2.869,5.032,5.071,8.381,6.606
		C1011.651,106.554,1015.564,107.32,1020.045,107.32z"/>
	<path fill="#8B8D8E" d="M1077.876,2.149v109.853h-7.173V2.149H1077.876z"/>
	<path fill="#8B8D8E" d="M1112.377,10.982c0,0.906-0.188,1.75-0.566,2.529c-0.377,0.781-0.868,1.472-1.472,2.076
		c-0.604,0.604-1.31,1.083-2.114,1.435c-0.806,0.353-1.661,0.528-2.567,0.528c-0.905,0-1.762-0.176-2.566-0.528
		c-0.806-0.352-1.511-0.831-2.114-1.435c-0.604-0.604-1.083-1.295-1.435-2.076c-0.353-0.78-0.528-1.623-0.528-2.529
		c0-0.906,0.176-1.774,0.528-2.604c0.352-0.831,0.83-1.548,1.435-2.152c0.604-0.604,1.309-1.082,2.114-1.435
		c0.805-0.352,1.661-0.528,2.566-0.528c0.906,0,1.762,0.177,2.567,0.528c0.805,0.353,1.51,0.831,2.114,1.435
		c0.604,0.604,1.095,1.321,1.472,2.152C1112.188,9.208,1112.377,10.077,1112.377,10.982z M1109.206,36.879v75.123h-7.173V36.879
		H1109.206z"/>
	<path fill="#8B8D8E" d="M1159.865,35.671c5.385,0,10.204,0.919,14.458,2.756c4.253,1.838,7.839,4.443,10.759,7.814
		c2.919,3.373,5.146,7.437,6.682,12.193c1.535,4.757,2.303,10.08,2.303,15.968c0,5.889-0.768,11.2-2.303,15.931
		c-1.536,4.731-3.763,8.784-6.682,12.155c-2.92,3.373-6.506,5.965-10.759,7.777c-4.254,1.812-9.073,2.718-14.458,2.718
		c-5.387,0-10.206-0.906-14.458-2.718c-4.255-1.812-7.853-4.404-10.797-7.777c-2.944-3.372-5.185-7.424-6.72-12.155
		c-1.536-4.73-2.303-10.042-2.303-15.931c0-5.889,0.767-11.211,2.303-15.968c1.535-4.756,3.775-8.82,6.72-12.193
		c2.944-3.371,6.542-5.976,10.797-7.814C1149.659,36.59,1154.479,35.671,1159.865,35.671z M1159.865,107.32
		c4.479,0,8.393-0.767,11.74-2.303c3.347-1.535,6.14-3.737,8.38-6.606c2.239-2.869,3.913-6.329,5.021-10.381
		c1.106-4.051,1.661-8.594,1.661-13.628c0-4.983-0.555-9.513-1.661-13.59c-1.108-4.077-2.782-7.562-5.021-10.457
		c-2.24-2.894-5.033-5.121-8.38-6.682c-3.348-1.56-7.261-2.34-11.74-2.34c-4.48,0-8.394,0.781-11.74,2.34
		c-3.349,1.561-6.142,3.788-8.381,6.682c-2.24,2.895-3.926,6.379-5.059,10.457c-1.132,4.077-1.698,8.607-1.698,13.59
		c0,5.034,0.566,9.577,1.698,13.628c1.133,4.052,2.818,7.512,5.059,10.381c2.239,2.869,5.032,5.071,8.381,6.606
		C1151.472,106.554,1155.385,107.32,1159.865,107.32z"/>
	<path fill="#8B8D8E" d="M1249.783,46.241c-0.354,0.706-0.906,1.057-1.661,1.057c-0.555,0-1.272-0.313-2.152-0.944
		c-0.881-0.628-2.038-1.333-3.473-2.114c-1.435-0.78-3.197-1.484-5.285-2.114c-2.089-0.629-4.644-0.944-7.663-0.944
		c-2.718,0-5.198,0.389-7.437,1.168c-2.24,0.778-4.152,1.82-5.738,3.125c-1.586,1.305-2.819,2.823-3.699,4.555
		c-0.882,1.731-1.321,3.552-1.321,5.459c0,2.359,0.604,4.317,1.812,5.874s2.794,2.886,4.757,3.99s4.19,2.059,6.682,2.862
		c2.491,0.804,5.046,1.608,7.663,2.413c2.616,0.806,5.172,1.699,7.663,2.68c2.492,0.981,4.719,2.203,6.682,3.662
		c1.964,1.46,3.549,3.247,4.757,5.361c1.208,2.114,1.812,4.681,1.812,7.701c0,3.272-0.593,6.317-1.774,9.136
		c-1.184,2.819-2.896,5.26-5.134,7.323c-2.24,2.064-4.996,3.7-8.268,4.908c-3.272,1.208-6.997,1.812-11.174,1.812
		c-5.285,0-9.841-0.843-13.666-2.529c-3.825-1.686-7.248-3.888-10.268-6.606l1.736-2.567c0.251-0.402,0.528-0.704,0.83-0.906
		c0.303-0.201,0.729-0.302,1.284-0.302c0.653,0,1.459,0.404,2.416,1.208c0.955,0.806,2.201,1.674,3.737,2.605
		c1.534,0.932,3.446,1.8,5.737,2.604c2.29,0.806,5.121,1.208,8.494,1.208c3.171,0,5.965-0.44,8.381-1.321
		c2.416-0.88,4.428-2.076,6.04-3.586c1.609-1.51,2.831-3.284,3.661-5.323c0.831-2.039,1.246-4.19,1.246-6.456
		c0-2.516-0.604-4.605-1.812-6.266c-1.208-1.661-2.793-3.07-4.756-4.228c-1.963-1.157-4.19-2.139-6.682-2.945
		c-2.492-0.804-5.059-1.61-7.701-2.416c-2.643-0.804-5.21-1.686-7.701-2.642c-2.491-0.956-4.719-2.164-6.682-3.624
		c-1.963-1.459-3.549-3.234-4.757-5.323c-1.208-2.088-1.812-4.693-1.812-7.814c0-2.667,0.578-5.234,1.736-7.701
		c1.157-2.465,2.805-4.63,4.945-6.493c2.139-1.862,4.743-3.347,7.814-4.455c3.069-1.106,6.518-1.661,10.343-1.661
		c4.58,0,8.646,0.664,12.193,1.99c3.549,1.327,6.807,3.356,9.777,6.088L1249.783,46.241z"/>
</g>
</svg>
